HIERARCHY
ROOT hip
{
  OFFSET 0 0 0
  CHANNELS 6 Xposition Yposition Zposition Zrotation Yrotation Xrotation
  JOINT abdomen
  {
    OFFSET 0 20.6881 -0.73152
    CHANNELS 3 Zrotation Xrotation Yrotation
    JOINT chest
    {
      OFFSET 0 11.7043 -0.48768
      CHANNELS 3 Zrotation Xrotation Yrotation
      JOINT neck
      {
        OFFSET 0 22.1894 -2.19456
        CHANNELS 3 Zrotation Xrotation Yrotation
        JOINT head
        {
          OFFSET -0.24384 7.07133 1.2192
          CHANNELS 3 Zrotation Xrotation Yrotation
          JOINT leftEye
          {
            OFFSET 4.14528 8.04674 8.04672
            CHANNELS 3 Zrotation Xrotation Yrotation
            End Site
            {
              OFFSET 1 0 0
            }
          }
          JOINT rightEye
          {
            OFFSET -3.6576 8.04674 8.04672
            CHANNELS 3 Zrotation Xrotation Yrotation
            End Site
            {
              OFFSET 1 0 0
            }
          }
        }
      }
      JOINT rCollar
      {
        OFFSET -2.68224 19.2634 -4.8768
        CHANNELS 3 Zrotation Xrotation Yrotation
        JOINT rShldr
        {
          OFFSET -8.77824 -1.95073 1.46304
          CHANNELS 3 Zrotation Xrotation Yrotation
          JOINT rForeArm
          {
            OFFSET -28.1742 -1.7115 0.48768
            CHANNELS 3 Zrotation Xrotation Yrotation
            JOINT rHand
            {
              OFFSET -22.5879 0.773209 7.07136
              CHANNELS 3 Zrotation Xrotation Yrotation
              JOINT rThumb1
              {
                OFFSET -1.2192 -0.487915 3.41376
                CHANNELS 3 Zrotation Xrotation Yrotation
                JOINT rThumb2
                {
                  OFFSET -3.37035 -0.52449 3.41376
                  CHANNELS 3 Zrotation Xrotation Yrotation
                  End Site
                  {
                    OFFSET -1.78271 -1.18214 1.43049
                  }
                }
              }
              JOINT rIndex1
              {
                OFFSET -7.75947 0.938293 5.60832
                CHANNELS 3 Zrotation Xrotation Yrotation
                JOINT rIndex2
                {
                  OFFSET -2.54057 -0.884171 1.56538
                  CHANNELS 3 Zrotation Xrotation Yrotation
                  End Site
                  {
                    OFFSET -1.62519 -0.234802 1.16502
                  }
                }
              }
              JOINT rMid1
              {
                OFFSET -8.24714 1.18213 3.41376
                CHANNELS 3 Zrotation Xrotation Yrotation
                JOINT rMid2
                {
                  OFFSET -3.10165 -0.590103 1.0647
                  CHANNELS 3 Zrotation Xrotation Yrotation
                  End Site
                  {
                    OFFSET -2.48547 -0.328903 0.83742
                  }
                }
              }
              JOINT rRing1
              {
                OFFSET -8.82822 0.546677 1.51678
                CHANNELS 3 Zrotation Xrotation Yrotation
                JOINT rRing2
                {
                  OFFSET -2.60934 -0.819778 -0.0198488
                  CHANNELS 3 Zrotation Xrotation Yrotation
                  End Site
                  {
                    OFFSET -2.33842 -0.294052 0.168128
                  }
                }
              }
              JOINT rPinky1
              {
                OFFSET -8.27202 -0.0477905 -0.4584
                CHANNELS 3 Zrotation Xrotation Yrotation
                JOINT rPinky2
                {
                  OFFSET -1.82734 -0.647385 -0.700984
                  CHANNELS 3 Zrotation Xrotation Yrotation
                  End Site
                  {
                    OFFSET -1.69225 -0.51767 -0.607171
                  }
                }
              }
            }
          }
        }
      }
      JOINT lCollar
      {
        OFFSET 2.68224 19.2634 -4.8768
        CHANNELS 3 Zrotation Xrotation Yrotation
        JOINT lShldr
        {
          OFFSET 8.77824 -1.95073 1.46304
          CHANNELS 3 Zrotation Xrotation Yrotation
          JOINT lForeArm
          {
            OFFSET 28.1742 -1.7115 0.48768
            CHANNELS 3 Zrotation Xrotation Yrotation
            JOINT lHand
            {
              OFFSET 22.5879 0.773209 7.07136
              CHANNELS 3 Zrotation Xrotation Yrotation
              JOINT lThumb1
              {
                OFFSET 1.2192 -0.487915 3.41376
                CHANNELS 3 Zrotation Xrotation Yrotation
                JOINT lThumb2
                {
                  OFFSET 3.37035 -0.52449 3.41376
                  CHANNELS 3 Zrotation Xrotation Yrotation
                  End Site
                  {
                    OFFSET 1.78271 -1.18214 1.43049
                  }
                }
              }
              JOINT lIndex1
              {
                OFFSET 7.75947 0.938293 5.60832
                CHANNELS 3 Zrotation Xrotation Yrotation
                JOINT lIndex2
                {
                  OFFSET 2.54057 -0.884171 1.56538
                  CHANNELS 3 Zrotation Xrotation Yrotation
                  End Site
                  {
                    OFFSET 1.62519 -0.234802 1.16502
                  }
                }
              }
              JOINT lMid1
              {
                OFFSET 8.24714 1.18213 3.41376
                CHANNELS 3 Zrotation Xrotation Yrotation
                JOINT lMid2
                {
                  OFFSET 3.10165 -0.590103 1.0647
                  CHANNELS 3 Zrotation Xrotation Yrotation
                  End Site
                  {
                    OFFSET 2.48547 -0.328903 0.83742
                  }
                }
              }
              JOINT lRing1
              {
                OFFSET 8.82822 0.546677 1.51678
                CHANNELS 3 Zrotation Xrotation Yrotation
                JOINT lRing2
                {
                  OFFSET 2.60934 -0.819778 -0.0198488
                  CHANNELS 3 Zrotation Xrotation Yrotation
                  End Site
                  {
                    OFFSET 2.33842 -0.294052 0.168128
                  }
                }
              }
              JOINT lPinky1
              {
                OFFSET 8.27202 -0.0477905 -0.4584
                CHANNELS 3 Zrotation Xrotation Yrotation
                JOINT lPinky2
                {
                  OFFSET 1.82734 -0.647385 -0.700984
                  CHANNELS 3 Zrotation Xrotation Yrotation
                  End Site
                  {
                    OFFSET 1.69225 -0.51767 -0.607171
                  }
                }
              }
            }
          }
        }
      }
    }
  }
  JOINT rButtock
  {
    OFFSET -8.77824 4.35084 1.2192
    CHANNELS 3 Zrotation Xrotation Yrotation
    JOINT rThigh
    {
      OFFSET 0 -1.70687 -2.19456
      CHANNELS 3 Zrotation Xrotation Yrotation
      JOINT rShin
      {
        OFFSET 0 -36.8199 0.73152
        CHANNELS 3 Zrotation Xrotation Yrotation
        JOINT rFoot
        {
          OFFSET 0.73152 -45.1104 -5.12064
          CHANNELS 3 Zrotation Xrotation Yrotation
          End Site
          {
            OFFSET -1.1221 -3.69964 12.103
          }
        }
      }
    }
  }
  JOINT lButtock
  {
    OFFSET 8.77824 4.35084 1.2192
    CHANNELS 3 Zrotation Xrotation Yrotation
    JOINT lThigh
    {
      OFFSET 0 -1.70687 -2.19456
      CHANNELS 3 Zrotation Xrotation Yrotation
      JOINT lShin
      {
        OFFSET 0 -36.8199 0.73152
        CHANNELS 3 Zrotation Xrotation Yrotation
        JOINT lFoot
        {
          OFFSET -0.73152 -45.1104 -5.12064
          CHANNELS 3 Zrotation Xrotation Yrotation
          End Site
          {
            OFFSET 1.1221 -3.69964 12.103
          }
        }
      }
    }
  }
}
MOTION
Frames:	9
Frame Time:	0.00833333
67.3939 85.2022 -95.7937 0.0 0.0 0.0 0.60224 -0.00285569 0.0171683 0.166047 -0.00431788 0.0287696 1.80952e-14 7.95139e-16 -1.73936e-16 5.43707e-14 9.54166e-15 -4.98515e-16 -0.0 0.0 0.0 -0.0 0.0 0.0 9.09328e-15 -1.53359e-17 0.0 1.9246e-13 -4.47265e-16 -1.98785e-16 3.27721e-12 -9.93327e-13 -6.67917e-14 3.75026e-11 9.0939e-13 -2.76708e-13 8.84628e-11 -1.80398e-13 -7.34708e-13 1.52776e-10 -3.11694e-13 -1.28812e-12 8.84683e-11 -1.77316e-13 -7.50611e-13 7.73091 5.47488 0.417314 8.84618e-11 -1.80397e-13 -7.34708e-13 2.90554 0.965183 0.102902 8.84702e-11 -1.80099e-13 -7.41069e-13 10.2786 0.731801 0.0259123 8.84628e-11 -1.81292e-13 -7.34708e-13 2.22167 -0.733487 -0.20892 9.09611e-15 -1.55301e-17 -9.93923e-17 1.88521e-13 -6.52262e-16 -2.38542e-15 3.2794e-12 9.65895e-13 -7.63333e-14 3.75052e-11 -1.05182e-12 -2.70347e-13 8.84761e-11 -1.85418e-13 -7.4743e-13 1.52793e-10 -3.24417e-13 -1.27381e-12 8.84699e-11 -1.85665e-13 -7.41069e-13 -7.73091 5.47488 -0.417314 8.8474e-11 -1.8487e-13 -7.4425e-13 -2.90554 0.965183 -0.102902 8.84656e-11 -1.85168e-13 -7.40274e-13 -10.2786 0.731801 -0.0259123 8.84806e-11 -1.82882e-13 -7.41069e-13 -2.22167 -0.733487 0.20892 -2.03217e-16 0.0 -3.88251e-19 0.985468 -4.60218 -0.081242 -0.00202253 2.78416 -0.00804011 -0.532647 1.81804 0.098229 2.03217e-16 0.0 3.88251e-19 -0.070151 -2.29252 0.0218604 0.00846661 -1.39935 0.0723334 0.526164 3.69178 -0.136084
64.298 84.1588 -99.0469 -1.2272 -67.9638 4.7292 1.10093 -1.0278 1.60212 0.338659 0.672398 0.484189 2.51705 3.82466 3.15762 -5.16965 -2.54211 5.69429 -0.0 0.0 0.0 -0.0 0.0 0.0 5.48224e-15 2.70982e-14 -6.57434e-14 21.655 0.488231 -2.08387 -4.17495 -1.88811 6.53045 0.00681833 1.83179 0.256966 3.51506e-10 2.95017e-10 -3.19511e-10 6.05568e-10 5.10929e-10 -5.5524e-10 3.5151e-10 2.95018e-10 -3.19521e-10 7.73091 5.47488 0.417314 3.51506e-10 2.95016e-10 -3.19511e-10 2.90554 0.965183 0.102902 3.51513e-10 2.95015e-10 -3.19516e-10 10.2786 0.731801 0.0259123 3.51505e-10 2.95014e-10 -3.1951e-10 2.22167 -0.733487 -0.20892 5.47225e-15 2.70978e-14 -6.58587e-14 -21.7163 4.77455 0.863621 4.12012 -1.85265 -6.45613 -0.00119381 0.766477 -0.107686 3.99169e-10 -7.90683e-10 -1.66323e-10 6.90129e-10 -1.37114e-09 -2.8949e-10 3.99161e-10 -7.90684e-10 -1.66314e-10 -7.73091 5.47488 -0.417314 3.99167e-10 -7.90682e-10 -1.66322e-10 -2.90554 0.965183 -0.102902 3.9916e-10 -7.90684e-10 -1.66316e-10 -10.2786 0.731801 -0.0259123 3.99174e-10 -7.90678e-10 -1.66319e-10 -2.22167 -0.733487 0.20892 -2.03217e-16 0.0 -3.88251e-19 0.657428 -5.2439 3.4921 0.00557409 6.78257 0.0547231 -0.860825 -0.376767 -6.08889 2.03217e-16 0.0 3.88251e-19 1.02525 -3.51069 -2.20133 -0.00718922 4.14826 -0.0605712 0.94553 -1.96752 3.89838
64.3133 84.1568 -99.2642 -3.1988 -67.8239 6.696 1.68638 -2.10634 3.28261 0.508995 1.38488 0.96691 4.72009 7.83788 6.53707 -10.0904 -5.14911 11.74 -0.0 0.0 0.0 -0.0 0.0 0.0 2.3017e-15 5.87344e-14 -1.44057e-13 44.5879 1.00361 -4.29063 -8.1251 -3.80331 13.4588 -0.00387534 3.76843 0.529532 6.56482e-10 6.38274e-10 -6.75953e-10 1.13064e-09 1.10542e-09 -1.17476e-09 6.56485e-10 6.38273e-10 -6.75957e-10 7.73091 5.47488 0.417314 6.56483e-10 6.38271e-10 -6.75953e-10 2.90554 0.965183 0.102902 6.56489e-10 6.3827e-10 -6.75957e-10 10.2786 0.731801 0.0259123 6.5648e-10 6.38269e-10 -6.75951e-10 2.22167 -0.733487 -0.20892 2.27672e-15 5.87336e-14 -1.4419e-13 -44.8326 9.81904 1.80067 8.0234 -3.73177 -13.3006 0.000679047 1.57777 -0.221735 7.54525e-10 -1.73262e-09 -3.82516e-10 1.3046e-09 -3.00443e-09 -6.65503e-10 7.54514e-10 -1.73262e-09 -3.82506e-10 -7.73091 5.47488 -0.417314 7.54522e-10 -1.73262e-09 -3.82519e-10 -2.90554 0.965183 -0.102902 7.54516e-10 -1.73262e-09 -3.8251e-10 -10.2786 0.731801 -0.0259123 7.5453e-10 -1.73261e-09 -3.82515e-10 -2.22167 -0.733487 0.20892 -2.03217e-16 0.0 -3.88251e-19 0.392855 -5.88988 7.27643 0.00394829 11.0092 0.12263 -1.72125 -2.64678 -12.6395 2.03217e-16 0.0 3.88251e-19 2.07606 -4.78507 -4.5525 0.00458458 10.0132 -0.203765 2.25765 -7.87389 8.23283
64.2629 84.1686 -98.882 0.3358 -68.1417 3.0777 2.26841 -3.06821 4.7781 0.651598 2.0253 1.3958 6.27158 11.3333 9.64148 -14.0076 -7.32474 17.2108 -0.0 0.0 0.0 -0.0 0.0 0.0 -1.73986e-15 8.13253e-14 -1.9723e-13 65.0714 1.45694 -6.2534 -11.2568 -5.37061 19.6705 -0.0290295 5.49492 0.774061 8.77593e-10 8.85412e-10 -9.57064e-10 1.51115e-09 1.53341e-09 -1.66315e-09 8.77595e-10 8.8541e-10 -9.57063e-10 7.73091 5.47488 0.417314 8.77595e-10 8.85408e-10 -9.57064e-10 2.90554 0.965183 0.102902 8.77599e-10 8.85406e-10 -9.57066e-10 10.2786 0.731801 0.0259123 8.7759e-10 8.85406e-10 -9.57061e-10 2.22167 -0.733487 -0.20892 -1.77548e-15 8.13245e-14 -1.97377e-13 -65.5923 14.3104 2.66461 11.1299 -5.27626 -19.4439 0.00506793 2.2994 -0.323291 1.02056e-09 -2.37168e-09 -4.97473e-10 1.7648e-09 -4.11276e-09 -8.65924e-10 1.02054e-09 -2.37168e-09 -4.97461e-10 -7.73091 5.47488 -0.417314 1.02055e-09 -2.37168e-09 -4.97478e-10 -2.90554 0.965183 -0.102902 1.02055e-09 -2.37168e-09 -4.97467e-10 -10.2786 0.731801 -0.0259123 1.02056e-09 -2.37167e-09 -4.97474e-10 -2.22167 -0.733487 0.20892 -2.03217e-16 0.0 -3.88251e-19 0.240186 -6.4442 10.6625 -0.0063093 14.7793 0.185209 -2.91747 -4.52661 -18.5225 2.03217e-16 0.0 3.88251e-19 2.93188 -5.91475 -6.67095 0.040687 15.2432 -0.337744 4.20406 -13.006 12.2796
64.2688 84.1711 -98.7153 2.0695 -68.1721 1.3784 2.72194 -3.74742 5.80532 0.747573 2.48608 1.68939 7.10422 13.6678 11.8964 -16.4679 -8.70763 21.1221 -0.0 0.0 0.0 -0.0 0.0 0.0 -7.93396e-15 8.13029e-14 -1.87553e-13 79.3552 1.76264 -7.60445 -13.2288 -6.34871 24.015 -0.055316 6.69648 0.945481 8.89041e-10 8.92254e-10 -1.04985e-09 1.53028e-09 1.54516e-09 -1.82368e-09 8.89043e-10 8.92251e-10 -1.04984e-09 7.73091 5.47488 0.417314 8.89044e-10 8.9225e-10 -1.04985e-09 2.90554 0.965183 0.102902 8.89048e-10 8.92248e-10 -1.04985e-09 10.2786 0.731801 0.0259123 8.89037e-10 8.92247e-10 -1.04984e-09 2.22167 -0.733487 -0.20892 -7.96933e-15 8.13027e-14 -1.87702e-13 -80.1397 17.4319 3.2748 13.1013 -6.25166 -23.7628 0.00960367 2.79689 -0.393393 1.06327e-09 -2.25356e-09 -3.59336e-10 1.83932e-09 -3.90868e-09 -6.27367e-10 1.06326e-09 -2.25356e-09 -3.59323e-10 -7.73091 5.47488 -0.417314 1.06327e-09 -2.25356e-09 -3.59342e-10 -2.90554 0.965183 -0.102902 1.06327e-09 -2.25356e-09 -3.59331e-10 -10.2786 0.731801 -0.0259123 1.06328e-09 -2.25354e-09 -3.59339e-10 -2.22167 -0.733487 0.20892 -2.03217e-16 0.0 -3.88251e-19 0.203319 -6.83482 13.0357 -0.0187059 17.4086 0.230015 -3.96292 -5.67854 -22.6661 2.03217e-16 0.0 3.88251e-19 3.49806 -6.71037 -8.1886 0.081081 18.8862 -0.436967 6.02416 -16.4814 15.2733
64.296 84.1612 -98.8303 1.1414 -68.0533 2.4194 2.94882 -4.03996 6.16454 0.788999 2.69556 1.79052 7.34082 14.477 12.8601 -17.3341 -9.19517 22.7925 -0.0 0.0 0.0 -0.0 0.0 0.0 -1.81137e-14 4.88996e-14 -7.73688e-14 84.9261 1.8625 -8.08885 -13.947 -6.6942 25.6999 -0.0673944 7.15696 1.01151 5.78692e-10 5.24555e-10 -8.80403e-10 9.94573e-10 9.08087e-10 -1.52734e-09 5.78694e-10 5.24553e-10 -8.80401e-10 7.73091 5.47488 0.417314 5.78695e-10 5.24552e-10 -8.80403e-10 2.90554 0.965183 0.102902 5.78701e-10 5.2455e-10 -8.80405e-10 10.2786 0.731801 0.0259123 5.78688e-10 5.2455e-10 -8.804e-10 2.22167 -0.733487 -0.20892 -1.81288e-14 4.89016e-14 -7.74953e-14 -85.8352 18.637 3.47574 13.8441 -6.61557 -25.488 0.011753 2.99504 -0.421339 7.67632e-10 -9.30456e-10 2.15458e-10 1.3297e-09 -1.61615e-09 3.68276e-10 7.67619e-10 -9.30459e-10 2.1547e-10 -7.73091 5.47488 -0.417314 7.67631e-10 -9.30455e-10 2.15453e-10 -2.90554 0.965183 -0.102902 7.67628e-10 -9.3046e-10 2.15461e-10 -10.2786 0.731801 -0.0259123 7.67637e-10 -9.30446e-10 2.15453e-10 -2.22167 -0.733487 0.20892 -2.03217e-16 0.0 -3.88251e-19 0.269012 -7.03981 13.9835 -0.0247763 18.4322 0.246362 -4.36449 -5.95737 -24.333 2.03217e-16 0.0 3.88251e-19 3.75502 -7.07066 -8.86454 0.100402 20.3161 -0.478363 6.87667 -17.8597 16.5381
64.336 84.1465 -99.2213 -2.4091 -67.7082 6.095 3.00105 -4.05797 6.04586 0.793855 2.72566 1.75415 7.24931 14.2247 12.8699 -17.1635 -9.10092 22.8418 -0.0 0.0 0.0 -0.0 0.0 0.0 -3.10941e-14 -6.59864e-15 1.04011e-13 84.2664 1.81695 -7.95435 -13.8496 -6.64233 25.4741 -0.0656796 7.08849 1.00169 3.98325e-11 -1.08857e-10 -5.23585e-10 6.48781e-11 -1.89286e-10 -9.04556e-10 3.98357e-11 -1.08857e-10 -5.23587e-10 7.73091 5.47488 0.417314 3.98369e-11 -1.08858e-10 -5.23587e-10 2.90554 0.965183 0.102902 3.98447e-11 -1.0886e-10 -5.23588e-10 10.2786 0.731801 0.0259123 3.98284e-11 -1.08861e-10 -5.23584e-10 2.22167 -0.733487 -0.20892 -3.10748e-14 -6.59332e-15 1.03924e-13 -85.1729 18.4762 3.36958 13.7889 -6.59595 -25.3496 0.0115757 2.97868 -0.419032 2.31534e-10 1.24644e-09 1.09823e-09 4.04933e-10 2.15617e-09 1.89791e-09 2.31521e-10 1.24644e-09 1.09824e-09 -7.73091 5.47488 -0.417314 2.31533e-10 1.24644e-09 1.09823e-09 -2.90554 0.965183 -0.102902 2.31531e-10 1.24644e-09 1.09823e-09 -10.2786 0.731801 -0.0259123 2.31537e-10 1.24645e-09 1.09822e-09 -2.22167 -0.733487 0.20892 -2.03217e-16 0.0 -3.88251e-19 0.389735 -7.12179 13.9112 -0.024155 18.3094 0.241537 -4.21955 -5.66528 -24.2189 2.03217e-16 0.0 3.88251e-19 3.81233 -7.12456 -8.93558 0.0978409 20.165 -0.475458 6.8416 -17.8061 16.4881
64.3631 84.1463 -99.1148 -1.0363 -67.8285 4.7462 2.97305 -3.9617 5.74943 0.783151 2.68421 1.66682 7.03152 13.5406 12.4832 -16.5878 -8.7501 22.2132 -0.0 0.0 0.0 -0.0 0.0 0.0 -4.36394e-14 -7.0179e-14 2.93841e-13 81.1155 1.72 -7.58677 -13.4254 -6.43106 24.4851 -0.0586873 6.81879 0.963022 -5.45197e-10 -7.87553e-10 -8.95283e-11 -9.44176e-10 -1.36504e-09 -1.47812e-10 -5.45193e-10 -7.87551e-10 -8.95347e-11 7.73091 5.47488 0.417314 -5.45192e-10 -7.87552e-10 -8.95309e-11 2.90554 0.965183 0.102902 -5.45182e-10 -7.87554e-10 -8.95312e-11 10.2786 0.731801 0.0259123 -5.45201e-10 -7.87554e-10 -8.95278e-11 2.22167 -0.733487 -0.20892 -4.35877e-14 -7.01708e-14 2.93787e-13 -81.9759 17.7811 3.14521 13.4129 -6.4216 -24.4602 0.0102697 2.85346 -0.401372 -3.59599e-10 3.53299e-09 1.97247e-09 -6.15184e-10 6.11871e-09 3.41311e-09 -3.59611e-10 3.53298e-09 1.97248e-09 -7.73091 5.47488 -0.417314 -3.59598e-10 3.53298e-09 1.97247e-09 -2.90554 0.965183 -0.102902 -3.59601e-10 3.53298e-09 1.97247e-09 -10.2786 0.731801 -0.0259123 -3.59596e-10 3.53299e-09 1.97246e-09 -2.22167 -0.733487 0.20892 -2.03217e-16 0.0 -3.88251e-19 0.512226 -7.1433 13.4286 -0.021247 17.7413 0.229162 -3.88753 -5.19848 -23.3821 2.03217e-16 0.0 3.88251e-19 3.77815 -7.03278 -8.74746 0.0863787 19.3674 -0.454354 6.43927 -17.1674 15.9023
64.2849 84.1556 -98.8258 1.2742 -68.114 2.3556 2.95989 -3.91142 5.57554 0.777693 2.67907 1.61507 6.88516 13.0519 12.2576 -16.2297 -8.46079 21.8512 -0.0 0.0 0.0 -0.0 0.0 0.0 -5.25138e-14 -1.26829e-13 4.29375e-13 79.2121 1.66588 -7.37187 -13.161 -6.29697 23.8807 -0.0549694 6.67559 0.942504 -9.94059e-10 -1.2911e-09 3.11634e-10 -1.71796e-09 -2.23724e-09 5.50421e-10 -9.94053e-10 -1.2911e-09 3.11624e-10 7.73091 5.47488 0.417314 -9.94053e-10 -1.2911e-09 3.11631e-10 2.90554 0.965183 0.102902 -9.94042e-10 -1.2911e-09 3.11631e-10 10.2786 0.731801 0.0259123 -9.94062e-10 -1.2911e-09 3.11634e-10 2.22167 -0.733487 -0.20892 -5.2448e-14 -1.2682e-13 4.29325e-13 -80.0641 17.3837 2.99056 13.1876 -6.31724 -23.9334 0.00911585 2.725 -0.383266 -8.20342e-10 5.18502e-09 2.52167e-09 -1.41086e-09 8.98187e-09 4.36546e-09 -8.20352e-10 5.18502e-09 2.52168e-09 -7.73091 5.47488 -0.417314 -8.2034e-10 5.18502e-09 2.52167e-09 -2.90554 0.965183 -0.102902 -8.20343e-10 5.18502e-09 2.52167e-09 -10.2786 0.731801 -0.0259123 -8.2034e-10 5.18502e-09 2.52166e-09 -2.22167 -0.733487 0.20892 -2.03217e-16 0.0 -3.88251e-19 0.58829 -7.16521 13.1466 -0.0203902 17.4291 0.222842 -3.71495 -4.95742 -22.8767 2.03217e-16 0.0 3.88251e-19 3.75576 -6.9548 -8.64673 0.0794564 18.8581 -0.441351 6.20955 -16.7831 15.5675
